<svg width="423" height="356" viewBox="0 0 423 356" fill="none" xmlns="http://www.w3.org/2000/svg">
<path fill-rule="evenodd" clip-rule="evenodd" d="M179.995 0L179.094 1.52084L179.954 2.0307L180.814 2.54055L181.827 0.832222L180.966 0.322365L180.422 0H179.995ZM243.446 0L242.901 0.321278L242.04 0.829582L243.049 2.53789L243.91 2.02959L244.771 1.52128L243.873 0H243.446ZM246.935 7.15458L247.796 6.64627L248.804 8.35458L247.943 8.86289L247.082 9.37119L246.074 7.66289L246.935 7.15458ZM250.968 13.9879L251.829 13.4796L252.838 15.1879L251.976 15.6962L251.115 16.2045L250.107 14.4962L250.968 13.9879ZM255.001 20.8212L255.863 20.3129L256.871 22.0212L256.01 22.5295L255.149 23.0378L254.14 21.3295L255.001 20.8212ZM259.035 27.6545L259.896 27.1462L260.904 28.8545L260.043 29.3628L259.182 29.8711L258.174 28.1628L259.035 27.6545ZM263.068 34.4878L263.929 33.9795L264.938 35.6878L264.076 36.1961L263.215 36.7044L262.207 34.9961L263.068 34.4878ZM267.101 41.3211L267.962 40.8128L268.971 42.5211L268.11 43.0294L267.248 43.5378L266.24 41.8294L267.101 41.3211ZM271.135 48.1544L271.996 47.6461L273.004 49.3544L272.143 49.8628L271.282 50.3711L270.273 48.6627L271.135 48.1544ZM275.168 54.9877L276.029 54.4794L277.037 56.1878L276.176 56.6961L275.315 57.2044L274.307 55.496L275.168 54.9877ZM279.201 61.8211L280.062 61.3128L281.071 63.021L280.21 63.5294L279.348 64.0377L278.34 62.3294L279.201 61.8211ZM283.235 68.6544L284.096 68.146L285.104 69.8544L284.243 70.3627L283.382 70.871L282.373 69.1627L283.235 68.6544ZM287.268 75.4877L288.129 74.9793L289.137 76.6877L288.276 77.196L287.415 77.7043L286.407 75.996L287.268 75.4877ZM291.301 82.321L292.162 81.8127L293.171 83.521L292.31 84.0293L291.448 84.5376L290.44 82.8293L291.301 82.321ZM295.335 89.1543L296.196 88.646L297.204 90.3543L296.343 90.8626L295.482 91.3709L294.473 89.6626L295.335 89.1543ZM299.368 95.9876L300.229 95.4793L301.237 97.1876L300.376 97.6959L299.515 98.2042L298.507 96.4959L299.368 95.9876ZM303.401 102.821L304.262 102.313L305.271 104.021L304.41 104.529L303.548 105.038L302.54 103.329L303.401 102.821ZM307.435 109.654L308.296 109.146L309.304 110.854L308.443 111.363L307.582 111.871L306.573 110.162L307.435 109.654ZM311.468 116.488L312.329 115.979L313.337 117.688L312.476 118.196L311.615 118.704L310.607 116.996L311.468 116.488ZM315.501 123.321L316.362 122.813L317.371 124.521L316.509 125.029L315.648 125.537L314.64 123.829L315.501 123.321ZM319.534 130.154L320.396 129.646L321.404 131.354L320.543 131.862L319.682 132.371L318.673 130.662L319.534 130.154ZM323.568 136.987L324.429 136.479L325.437 138.187L324.576 138.696L323.715 139.204L322.707 137.496L323.568 136.987ZM327.601 143.821L328.462 143.312L329.471 145.021L328.609 145.529L327.748 146.037L326.74 144.329L327.601 143.821ZM331.634 150.654L332.496 150.146L333.504 151.854L332.643 152.362L331.782 152.871L330.773 151.162L331.634 150.654ZM335.668 157.487L336.529 156.979L337.537 158.687L336.676 159.196L335.815 159.704L334.807 157.996L335.668 157.487ZM339.701 164.321L340.562 163.812L341.571 165.521L340.709 166.029L339.848 166.537L338.84 164.829L339.701 164.321ZM343.734 171.154L344.596 170.646L345.604 172.354L344.743 172.862L343.882 173.371L342.873 171.662L343.734 171.154ZM347.768 177.987L348.629 177.479L349.637 179.187L348.776 179.696L347.915 180.204L346.907 178.496L347.768 177.987ZM351.801 184.821L352.662 184.312L353.671 186.021L352.809 186.529L351.948 187.037L350.94 185.329L351.801 184.821ZM355.834 191.654L356.696 191.146L357.704 192.854L356.843 193.362L355.982 193.871L354.973 192.162L355.834 191.654ZM359.868 198.487L360.729 197.979L361.737 199.687L360.876 200.196L360.015 200.704L359.007 198.996L359.868 198.487ZM363.901 205.321L364.762 204.812L365.771 206.521L364.909 207.029L364.048 207.537L363.04 205.829L363.901 205.321ZM367.934 212.154L368.796 211.646L369.804 213.354L368.943 213.862L368.082 214.371L367.073 212.662L367.934 212.154ZM371.968 218.987L372.829 218.479L373.837 220.188L372.976 220.696L372.115 221.204L371.107 219.496L371.968 218.987ZM376.001 225.821L376.862 225.312L377.871 227.021L377.009 227.529L376.148 228.037L375.14 226.329L376.001 225.821ZM380.034 232.654L380.896 232.146L381.904 233.854L381.043 234.362L380.182 234.871L379.173 233.162L380.034 232.654ZM384.068 239.487L384.929 238.979L385.937 240.688L385.076 241.196L384.215 241.704L383.207 239.996L384.068 239.487ZM388.101 246.321L388.962 245.812L389.971 247.521L389.109 248.029L388.248 248.537L387.24 246.829L388.101 246.321ZM392.134 253.154L392.996 252.646L394.004 254.354L393.143 254.862L392.282 255.371L391.273 253.662L392.134 253.154ZM396.168 259.987L397.029 259.479L398.037 261.187L397.176 261.696L396.315 262.204L395.307 260.496L396.168 259.987ZM400.201 266.821L401.062 266.312L402.071 268.021L401.209 268.529L400.348 269.037L399.34 267.329L400.201 266.821ZM404.234 273.654L405.096 273.146L406.104 274.854L405.243 275.362L404.382 275.871L403.373 274.162L404.234 273.654ZM408.268 280.487L409.129 279.979L410.137 281.688L409.276 282.196L408.415 282.704L407.407 280.996L408.268 280.487ZM412.301 287.321L413.162 286.812L414.171 288.521L413.309 289.029L412.448 289.537L411.44 287.829L412.301 287.321ZM416.334 294.154L417.196 293.646L418.204 295.354L417.343 295.862L416.482 296.371L415.473 294.662L416.334 294.154ZM420.368 300.987L421.229 300.479L422.237 302.188L421.376 302.696L420.861 303H420.394L419.507 301.496L420.368 300.987ZM399.338 355V356H397.35V355V354H399.338V355ZM391.387 355V356H389.399V355V354H391.387V355ZM383.436 355V356H381.448V355V354H383.436V355ZM375.485 355V356H373.497V355V354H375.485V355ZM367.534 355V356H365.547V355V354H367.534V355ZM359.584 355V356H357.596V355V354H359.584V355ZM351.633 355V356H349.645V355V354H351.633V355ZM343.682 355V356H341.694V355V354H343.682V355ZM335.731 355V356H333.743V355V354H335.731V355ZM327.78 355V356H325.793V355V354H327.78V355ZM319.83 355V356H317.842V355V354H319.83V355ZM311.879 355V356H309.891V355V354H311.879V355ZM303.928 355V356H301.94V355V354H303.928V355ZM295.977 355V356H293.989V355V354H295.977V355ZM288.026 355V356H286.039V355V354H288.026V355ZM280.076 355V356H278.088V355V354H280.076V355ZM272.125 355V356H270.137V355V354H272.125V355ZM264.174 355V356H262.186V355V354H264.174V355ZM256.223 355V356H254.235V355V354H256.223V355ZM248.272 355V356H246.285V355V354H248.272V355ZM240.322 355V356H238.334V355V354H240.322V355ZM232.371 355V356H230.383V355V354H232.371V355ZM224.42 355V356H222.432V355V354H224.42V355ZM216.469 355V356H214.481V355V354H216.469V355ZM208.518 355V356H206.531V355V354H208.518V355ZM200.567 355V356H198.58V355V354H200.567V355ZM192.617 355V356H190.629V355V354H192.617V355ZM184.666 355V356H182.678V355V354H184.666V355ZM176.715 355V356H174.727V355V354H176.715V355ZM168.764 355V356H166.776V355V354H168.764V355ZM160.813 355V356H158.826V355V354H160.813V355ZM152.862 355V356H150.875V355V354H152.862V355ZM144.912 355V356H142.924V355V354H144.912V355ZM136.961 355V356H134.973V355V354H136.961V355ZM129.01 355V356H127.022V355V354H129.01V355ZM121.059 355V356H119.072V355V354H121.059V355ZM113.108 355V356H111.121V355V354H113.108V355ZM105.158 355V356H103.17V355V354H105.158V355ZM97.2067 355V356H95.219V355V354H97.2067V355ZM89.2559 355V356H87.2682V355V354H89.2559V355ZM81.3051 355V356H79.3174V355V354H81.3051V355ZM73.3543 355V356H71.3666V355V354H73.3543V355ZM65.4035 355V356H63.4158V355V354H65.4035V355ZM57.4527 355V356H55.465V355V354H57.4527V355ZM49.5019 355V356H47.5142V355V354H49.5019V355ZM41.551 355V356H39.5633V355V354H41.551V355ZM33.6002 355V356H31.6125V355V354H33.6002V355ZM25.6494 355V356H23.6617V355V354H25.6494V355ZM2.7369 303H2.2644L1.75381 302.697L0.893555 302.188L1.90605 300.479L2.76631 300.989L3.62657 301.499L2.7369 303ZM5.80381 295.864L4.94355 295.354L5.95605 293.646L6.81631 294.156L7.67656 294.666L6.66407 296.374L5.80381 295.864ZM9.85381 289.031L8.99355 288.521L10.006 286.813L10.8663 287.322L11.7266 287.832L10.7141 289.541L9.85381 289.031ZM13.9038 282.197L13.0436 281.688L14.0561 279.979L14.9163 280.489L15.7766 280.999L14.7641 282.707L13.9038 282.197ZM17.9538 275.364L17.0936 274.854L18.1061 273.146L18.9663 273.656L19.8266 274.166L18.8141 275.874L17.9538 275.364ZM22.0038 268.531L21.1435 268.021L22.156 266.313L23.0163 266.822L23.8766 267.332L22.8641 269.041L22.0038 268.531ZM26.0538 261.697L25.1936 261.188L26.2061 259.479L27.0663 259.989L27.9266 260.499L26.9141 262.207L26.0538 261.697ZM30.1038 254.864L29.2436 254.354L30.2561 252.646L31.1163 253.156L31.9766 253.666L30.9641 255.374L30.1038 254.864ZM34.1538 248.031L33.2936 247.521L34.306 245.813L35.1663 246.322L36.0266 246.832L35.0141 248.541L34.1538 248.031ZM38.2038 241.197L37.3436 240.688L38.3561 238.979L39.2163 239.489L40.0766 239.999L39.0641 241.707L38.2038 241.197ZM42.2538 234.364L41.3936 233.854L42.4061 232.146L43.2663 232.656L44.1266 233.166L43.1141 234.874L42.2538 234.364ZM46.3038 227.531L45.4436 227.021L46.4561 225.312L47.3163 225.822L48.1766 226.332L47.1641 228.041L46.3038 227.531ZM50.3538 220.697L49.4935 220.188L50.5061 218.479L51.3663 218.989L52.2266 219.499L51.2141 221.207L50.3538 220.697ZM54.4038 213.864L53.5436 213.354L54.5561 211.646L55.4163 212.156L56.2766 212.666L55.2641 214.374L54.4038 213.864ZM58.4538 207.031L57.5936 206.521L58.6061 204.812L59.4663 205.322L60.3266 205.832L59.3141 207.541L58.4538 207.031ZM62.5038 200.197L61.6436 199.688L62.656 197.979L63.5163 198.489L64.3766 198.999L63.3641 200.707L62.5038 200.197ZM66.5538 193.364L65.6936 192.854L66.7061 191.146L67.5663 191.656L68.4266 192.166L67.4141 193.874L66.5538 193.364ZM70.6038 186.531L69.7436 186.021L70.7561 184.312L71.6163 184.822L72.4766 185.332L71.4641 187.041L70.6038 186.531ZM74.6538 179.697L73.7936 179.188L74.8061 177.479L75.6663 177.989L76.5266 178.499L75.5141 180.207L74.6538 179.697ZM78.7038 172.864L77.8436 172.354L78.8561 170.646L79.7163 171.156L80.5766 171.666L79.5641 173.374L78.7038 172.864ZM82.7538 166.031L81.8936 165.521L82.9061 163.813L83.7663 164.322L84.6266 164.832L83.6141 166.541L82.7538 166.031ZM86.8038 159.197L85.9436 158.688L86.9561 156.979L87.8163 157.489L88.6766 157.999L87.6641 159.707L86.8038 159.197ZM90.8538 152.364L89.9936 151.854L91.0061 150.146L91.8663 150.656L92.7266 151.166L91.7141 152.874L90.8538 152.364ZM94.9038 145.531L94.0435 145.021L95.0561 143.312L95.9163 143.822L96.7766 144.332L95.7641 146.041L94.9038 145.531ZM98.9538 138.697L98.0936 138.188L99.1061 136.479L99.9663 136.989L100.827 137.499L99.8141 139.207L98.9538 138.697ZM103.004 131.864L102.144 131.354L103.156 129.646L104.016 130.156L104.877 130.666L103.864 132.374L103.004 131.864ZM107.054 125.031L106.194 124.521L107.206 122.813L108.066 123.322L108.927 123.832L107.914 125.541L107.054 125.031ZM111.104 118.197L110.244 117.688L111.256 115.979L112.116 116.489L112.977 116.999L111.964 118.707L111.104 118.197ZM115.154 111.364L114.294 110.854L115.306 109.146L116.166 109.656L117.027 110.166L116.014 111.874L115.154 111.364ZM119.204 104.531L118.344 104.021L119.356 102.312L120.216 102.822L121.077 103.332L120.064 105.041L119.204 104.531ZM123.254 97.6974L122.394 97.1875L123.406 95.4792L124.266 95.989L125.127 96.4989L124.114 98.2072L123.254 97.6974ZM127.304 90.864L126.444 90.3542L127.456 88.6458L128.316 89.1557L129.177 89.6656L128.164 91.3739L127.304 90.864ZM131.354 84.0307L130.494 83.5208L131.506 81.8125L132.366 82.3224L133.227 82.8322L132.214 84.5406L131.354 84.0307ZM135.404 77.1974L134.544 76.6875L135.556 74.9792L136.416 75.489L137.277 75.9989L136.264 77.7072L135.404 77.1974ZM139.454 70.364L138.594 69.8542L139.606 68.1458L140.466 68.6557L141.327 69.1656L140.314 70.8739L139.454 70.364ZM143.504 63.5307L142.644 63.0208L143.656 61.3125L144.516 61.8224L145.377 62.3322L144.364 64.0406L143.504 63.5307ZM147.554 56.6974L146.694 56.1875L147.706 54.4792L148.566 54.989L149.427 55.4989L148.414 57.2072L147.554 56.6974ZM151.604 49.864L150.744 49.3542L151.756 47.6458L152.616 48.1557L153.477 48.6656L152.464 50.3739L151.604 49.864ZM155.654 43.0307L154.794 42.5208L155.806 40.8125L156.666 41.3224L157.527 41.8322L156.514 43.5406L155.654 43.0307ZM159.704 36.1974L158.844 35.6875L159.856 33.9792L160.716 34.489L161.577 34.9989L160.564 36.7072L159.704 36.1974ZM163.754 29.364L162.894 28.8542L163.906 27.1458L164.766 27.6557L165.627 28.1656L164.614 29.8739L163.754 29.364ZM167.804 22.5307L166.944 22.0208L167.956 20.3125L168.816 20.8224L169.677 21.3322L168.664 23.0406L167.804 22.5307ZM171.854 15.6974L170.994 15.1875L172.006 13.4792L172.866 13.989L173.727 14.4989L172.714 16.2072L171.854 15.6974ZM175.904 8.86403L175.044 8.35417L176.056 6.64584L176.916 7.1557L177.777 7.66556L176.764 9.37389L175.904 8.86403Z" fill="white" fill-opacity="0.2"/>
</svg>
