<svg width="559" height="559" viewBox="0 0 559 559" fill="none" xmlns="http://www.w3.org/2000/svg">
<path fill-rule="evenodd" clip-rule="evenodd" d="M279.236 0.00012207L279.764 0.00012207C279.676 4.0696e-05 279.588 0 279.5 0C279.412 0 279.324 4.0696e-05 279.236 0.00012207ZM347.928 8.43743C345.307 7.77772 342.67 7.15504 340.02 6.56998L339.589 8.52296C342.22 9.10381 344.837 9.72201 347.44 10.377L347.928 8.43743ZM218.98 6.57001C216.33 7.15507 213.693 7.77775 211.072 8.43746L211.56 10.377C214.163 9.72204 216.78 9.10384 219.411 8.52299L218.98 6.57001ZM363.572 12.8658C360.994 12.0536 358.399 11.2777 355.789 10.5389L355.245 12.4632C357.836 13.1968 360.412 13.967 362.972 14.7734L363.572 12.8658ZM203.211 10.5389C200.6 11.2778 198.006 12.0536 195.427 12.8658L196.028 14.7734C198.588 13.9671 201.164 13.1968 203.755 12.4633L203.211 10.5389ZM378.936 18.2054C376.407 17.2424 373.86 16.3152 371.297 15.4242L370.64 17.3133C373.185 18.1979 375.713 19.1185 378.224 20.0744L378.936 18.2054ZM187.703 15.4242C185.14 16.3152 182.593 17.2425 180.064 18.2054L180.776 20.0745C183.287 19.1185 185.815 18.1979 188.36 17.3133L187.703 15.4242ZM393.957 24.4344C391.486 23.3242 388.997 22.2489 386.489 21.209L385.723 23.0564C388.213 24.0888 390.684 25.1565 393.137 26.2586L393.957 24.4344ZM172.511 21.209C170.003 22.2489 167.514 23.3243 165.043 24.4344L165.863 26.2587C168.316 25.1565 170.787 24.0889 173.277 23.0564L172.511 21.209ZM408.586 31.53C406.184 30.2771 403.761 29.058 401.319 27.8734L400.446 29.6729C402.871 30.849 405.276 32.0593 407.661 33.3033L408.586 31.53ZM157.681 27.8734C155.239 29.058 152.816 30.2771 150.414 31.5301L151.339 33.3033C153.724 32.0594 156.129 30.849 158.554 29.673L157.681 27.8734ZM422.775 39.4662C420.451 38.076 418.105 36.7186 415.738 35.3947L414.762 37.1402C417.112 38.4547 419.441 39.8023 421.749 41.1825L422.775 39.4662ZM143.262 35.3947C140.895 36.7187 138.549 38.076 136.225 39.4662L137.251 41.1826C139.559 39.8024 141.888 38.4547 144.238 37.1403L143.262 35.3947ZM436.48 48.2148C434.241 46.692 431.978 45.2009 429.693 43.742L428.617 45.4278C430.886 46.8762 433.132 48.3567 435.355 49.8687L436.48 48.2148ZM129.307 43.7421C127.022 45.2009 124.759 46.692 122.52 48.2149L123.645 49.8687C125.868 48.3567 128.114 46.8762 130.383 45.4278L129.307 43.7421ZM449.656 57.7453C447.508 56.0946 445.335 54.4743 443.138 52.8853L441.966 54.5057C444.147 56.0835 446.304 57.6922 448.437 59.3312L449.656 57.7453ZM115.862 52.8853C113.665 54.4744 111.492 56.0946 109.344 57.7453L110.563 59.3312C112.696 57.6922 114.853 56.0835 117.034 54.5058L115.862 52.8853ZM462.256 68.022C460.207 66.2492 458.131 64.5057 456.03 62.7921L454.766 64.342C456.852 66.0434 458.913 67.7745 460.948 69.5347L462.256 68.022ZM102.97 62.7921C100.869 64.5057 98.7934 66.2492 96.7438 68.022L98.0521 69.5347C100.087 67.7745 102.148 66.0434 104.234 64.342L102.97 62.7921ZM474.241 79.0099C472.297 77.1213 470.326 75.2608 468.328 73.429L466.976 74.9032C468.96 76.722 470.917 78.5693 472.847 80.4444L474.241 79.0099ZM90.6723 73.429C88.6742 75.2608 86.7029 77.1213 84.759 79.0099L86.1526 80.4444C88.0827 78.5693 90.04 76.722 92.0239 74.9032L90.6723 73.429ZM485.571 90.6723C483.739 88.6742 481.879 86.7029 479.99 84.759L478.556 86.1526C480.431 88.0827 482.278 90.04 484.097 92.0239L485.571 90.6723ZM79.0099 84.759C77.1213 86.7029 75.2608 88.6743 73.429 90.6723L74.9032 92.0239C76.722 90.04 78.5693 88.0827 80.4444 86.1526L79.0099 84.759ZM496.208 102.97C494.494 100.869 492.751 98.7934 490.978 96.7438L489.465 98.0521C491.225 100.087 492.957 102.148 494.658 104.234L496.208 102.97ZM68.022 96.7438C66.2492 98.7934 64.5057 100.869 62.7921 102.97L64.342 104.234C66.0434 102.148 67.7745 100.087 69.5347 98.0522L68.022 96.7438ZM506.115 115.862C504.526 113.665 502.905 111.492 501.255 109.344L499.669 110.563C501.308 112.696 502.916 114.853 504.494 117.034L506.115 115.862ZM57.7453 109.344C56.0946 111.492 54.4743 113.665 52.8853 115.862L54.5057 117.034C56.0835 114.853 57.6922 112.696 59.3312 110.563L57.7453 109.344ZM515.258 129.307C513.799 127.022 512.308 124.759 510.785 122.52L509.131 123.645C510.643 125.868 512.124 128.114 513.572 130.383L515.258 129.307ZM48.2148 122.52C46.692 124.759 45.2009 127.022 43.742 129.307L45.4278 130.383C46.8762 128.114 48.3567 125.868 49.8687 123.645L48.2148 122.52ZM523.605 143.262C522.281 140.895 520.924 138.549 519.534 136.225L517.817 137.251C519.198 139.559 520.545 141.888 521.86 144.238L523.605 143.262ZM39.4662 136.225C38.076 138.549 36.7186 140.895 35.3947 143.262L37.1402 144.238C38.4547 141.888 39.8023 139.559 41.1825 137.251L39.4662 136.225ZM531.127 157.681C529.942 155.239 528.723 152.816 527.47 150.414L525.697 151.339C526.941 153.724 528.151 156.129 529.327 158.554L531.127 157.681ZM31.53 150.414C30.2771 152.816 29.058 155.239 27.8734 157.681L29.6729 158.554C30.849 156.129 32.0593 153.724 33.3033 151.339L31.53 150.414ZM537.791 172.511C536.751 170.003 535.676 167.514 534.566 165.043L532.741 165.863C533.844 168.316 534.911 170.787 535.944 173.277L537.791 172.511ZM24.4344 165.043C23.3242 167.514 22.2489 170.003 21.209 172.511L23.0564 173.277C24.0888 170.787 25.1565 168.316 26.2586 165.863L24.4344 165.043ZM543.576 187.703C542.685 185.14 541.758 182.593 540.795 180.064L538.926 180.776C539.882 183.287 540.802 185.815 541.687 188.36L543.576 187.703ZM18.2054 180.064C17.2424 182.593 16.3152 185.14 15.4242 187.703L17.3133 188.36C18.1979 185.815 19.1185 183.287 20.0744 180.776L18.2054 180.064ZM548.461 203.211C547.722 200.6 546.946 198.006 546.134 195.427L544.227 196.028C545.033 198.588 545.803 201.164 546.537 203.755L548.461 203.211ZM12.8658 195.428C12.0536 198.006 11.2777 200.601 10.5389 203.211L12.4632 203.755C13.1968 201.164 13.967 198.588 14.7734 196.028L12.8658 195.428ZM552.43 218.98C551.845 216.33 551.222 213.693 550.563 211.072L548.623 211.56C549.278 214.163 549.896 216.78 550.477 219.411L552.43 218.98ZM8.43743 211.072C7.77772 213.693 7.15504 216.33 6.56998 218.98L8.52296 219.411C9.10381 216.78 9.72201 214.163 10.377 211.56L8.43743 211.072ZM555.47 234.958C555.04 232.274 554.572 229.602 554.066 226.944L552.102 227.318C552.604 229.957 553.068 232.609 553.495 235.274L555.47 234.958ZM4.93363 226.944C4.42791 229.602 3.95983 232.274 3.52997 234.958L5.50481 235.274C5.93159 232.609 6.3963 229.957 6.89838 227.318L4.93363 226.944ZM557.574 251.088C557.3 248.379 556.988 245.682 556.638 242.996L554.654 243.255C555.002 245.921 555.312 248.599 555.584 251.289L557.574 251.088ZM2.36235 242.996C2.01204 245.682 1.69986 248.379 1.42637 251.088L3.41625 251.289C3.6878 248.599 3.99775 245.921 4.34555 243.255L2.36235 242.996ZM558.738 267.297C558.622 264.578 558.466 261.87 558.272 259.172L556.277 259.316C556.47 261.994 556.624 264.684 556.74 267.383L558.738 267.297ZM0.727953 259.172C0.534036 261.87 0.378412 264.579 0.261623 267.297L2.25978 267.383C2.37574 264.684 2.53027 261.994 2.72281 259.316L0.727953 259.172ZM559 279.5C559 278.137 558.99 276.776 558.971 275.418L556.971 275.447C556.99 276.796 557 278.147 557 279.5C557 280.853 556.99 282.204 556.971 283.553L558.971 283.582C558.99 282.223 559 280.863 559 279.5ZM0.0291995 275.418C0.00975507 276.777 0 278.137 0 279.5C0 280.863 0.00975579 282.224 0.0292016 283.582L2.029 283.553C2.00969 282.204 2 280.853 2 279.5C2 278.147 2.00969 276.796 2.02899 275.447L0.0291995 275.418ZM558.272 299.828C558.466 297.13 558.622 294.421 558.738 291.703L556.74 291.617C556.624 294.316 556.47 297.006 556.277 299.684L558.272 299.828ZM0.261629 291.703C0.37842 294.422 0.534045 297.13 0.727963 299.828L2.72282 299.684C2.53027 297.006 2.37575 294.316 2.25979 291.617L0.261629 291.703ZM556.638 316.004C556.988 313.318 557.3 310.621 557.574 307.912L555.584 307.711C555.312 310.401 555.002 313.079 554.654 315.745L556.638 316.004ZM1.42638 307.912C1.69988 310.621 2.01206 313.319 2.36236 316.004L4.34556 315.745C3.99776 313.079 3.68781 310.401 3.41627 307.711L1.42638 307.912ZM554.066 332.056C554.572 329.398 555.04 326.726 555.47 324.042L553.495 323.726C553.068 326.391 552.604 329.043 552.102 331.682L554.066 332.056ZM3.52999 324.042C3.95986 326.726 4.42793 329.398 4.93365 332.056L6.89841 331.682C6.39632 329.043 5.93161 326.391 5.50483 323.726L3.52999 324.042ZM550.563 347.928C551.222 345.307 551.845 342.67 552.43 340.02L550.477 339.589C549.896 342.22 549.278 344.837 548.623 347.44L550.563 347.928ZM6.57001 340.02C7.15507 342.67 7.77775 345.307 8.43746 347.928L10.377 347.44C9.72204 344.837 9.10384 342.22 8.52299 339.589L6.57001 340.02ZM546.314 363C547.061 360.61 547.777 358.206 548.461 355.789L546.537 355.245C545.803 357.836 545.033 360.412 544.227 362.972L544.317 363H546.314ZM480.334 471H483.089C482.065 472.089 481.032 473.169 479.99 474.241L478.556 472.847C479.151 472.234 479.744 471.618 480.334 471ZM10.5389 355.789C11.2231 358.206 11.939 360.61 12.6862 363H14.6834L14.7734 362.972C13.9671 360.412 13.1968 357.836 12.4633 355.245L10.5389 355.789ZM79.0099 474.241C77.9684 473.169 76.9354 472.089 75.911 471H78.666C79.256 471.618 79.8488 472.234 80.4444 472.847L79.0099 474.241ZM468.328 485.571C470.326 483.739 472.297 481.879 474.241 479.99L472.847 478.556C470.917 480.431 468.96 482.278 466.976 484.097L468.328 485.571ZM84.759 479.99C86.7029 481.879 88.6743 483.739 90.6723 485.571L92.0239 484.097C90.04 482.278 88.0827 480.431 86.1526 478.556L84.759 479.99ZM456.03 496.208C458.131 494.494 460.207 492.751 462.256 490.978L460.948 489.465C458.913 491.225 456.852 492.957 454.766 494.658L456.03 496.208ZM96.7438 490.978C98.7934 492.751 100.869 494.494 102.97 496.208L104.234 494.658C102.148 492.957 100.087 491.226 98.0522 489.465L96.7438 490.978ZM443.138 506.115C445.335 504.526 447.508 502.905 449.656 501.255L448.437 499.669C446.304 501.308 444.147 502.916 441.966 504.494L443.138 506.115ZM109.344 501.255C111.492 502.905 113.665 504.526 115.862 506.115L117.034 504.494C114.853 502.917 112.696 501.308 110.563 499.669L109.344 501.255ZM429.693 515.258C431.978 513.799 434.241 512.308 436.48 510.785L435.355 509.131C433.132 510.643 430.886 512.124 428.617 513.572L429.693 515.258ZM122.52 510.785C124.759 512.308 127.022 513.799 129.307 515.258L130.383 513.572C128.114 512.124 125.868 510.643 123.645 509.131L122.52 510.785ZM136.225 519.534C138.549 520.924 140.895 522.281 143.262 523.605L144.238 521.86C141.888 520.545 139.559 519.198 137.251 517.817L136.225 519.534ZM415.738 523.605C418.105 522.281 420.451 520.924 422.775 519.534L421.749 517.817C419.441 519.198 417.112 520.545 414.762 521.86L415.738 523.605ZM401.319 531.127C403.761 529.942 406.184 528.723 408.586 527.47L407.661 525.697C405.276 526.941 402.871 528.151 400.446 529.327L401.319 531.127ZM150.414 527.47C152.816 528.723 155.239 529.942 157.681 531.127L158.554 529.327C156.129 528.151 153.724 526.941 151.339 525.697L150.414 527.47ZM165.043 534.566C167.514 535.676 170.003 536.751 172.511 537.791L173.277 535.944C170.787 534.911 168.316 533.844 165.863 532.741L165.043 534.566ZM386.489 537.791C388.997 536.751 391.486 535.676 393.957 534.566L393.137 532.741C390.684 533.844 388.213 534.911 385.723 535.944L386.489 537.791ZM180.064 540.795C182.593 541.758 185.14 542.685 187.703 543.576L188.36 541.687C185.815 540.802 183.287 539.882 180.776 538.926L180.064 540.795ZM371.297 543.576C373.86 542.685 376.407 541.758 378.936 540.795L378.224 538.926C375.713 539.882 373.185 540.802 370.64 541.687L371.297 543.576ZM195.428 546.134C198.006 546.946 200.601 547.722 203.211 548.461L203.755 546.537C201.164 545.803 198.588 545.033 196.028 544.227L195.428 546.134ZM355.789 548.461C358.4 547.722 360.994 546.946 363.573 546.134L362.972 544.227C360.412 545.033 357.836 545.803 355.245 546.537L355.789 548.461ZM340.02 552.43C342.67 551.845 345.307 551.222 347.928 550.563L347.44 548.623C344.837 549.278 342.22 549.896 339.589 550.477L340.02 552.43ZM211.072 550.563C213.693 551.222 216.33 551.845 218.98 552.43L219.411 550.477C216.78 549.896 214.163 549.278 211.56 548.623L211.072 550.563ZM324.042 555.47C326.726 555.04 329.398 554.572 332.056 554.066L331.682 552.102C329.043 552.604 326.391 553.068 323.726 553.495L324.042 555.47ZM226.944 554.066C229.602 554.572 232.274 555.04 234.958 555.47L235.274 553.495C232.609 553.068 229.957 552.604 227.318 552.102L226.944 554.066ZM307.912 557.574C310.621 557.3 313.319 556.988 316.004 556.638L315.745 554.654C313.079 555.002 310.401 555.312 307.711 555.584L307.912 557.574ZM242.996 556.638C245.682 556.988 248.379 557.3 251.088 557.574L251.289 555.584C248.599 555.312 245.921 555.002 243.255 554.654L242.996 556.638ZM291.703 558.738C294.422 558.622 297.13 558.466 299.828 558.272L299.684 556.277C297.006 556.47 294.316 556.624 291.617 556.74L291.703 558.738ZM259.172 558.272C261.87 558.466 264.579 558.622 267.297 558.738L267.383 556.74C264.684 556.624 261.994 556.47 259.316 556.277L259.172 558.272ZM275.418 558.971C276.777 558.99 278.137 559 279.5 559C280.863 559 282.224 558.99 283.582 558.971L283.553 556.971C282.204 556.99 280.853 557 279.5 557C278.147 557 276.796 556.99 275.447 556.971L275.418 558.971Z" fill="white"/>
</svg>
